<?xml version="1.0" encoding="UTF-8"?>
<svg width="150px" height="40px" viewBox="0 0 150 40" version="1.1" xmlns="http://www.w3.org/2000/svg" xmlns:xlink="http://www.w3.org/1999/xlink">
    <title>Alberta Government Logo</title>
    <g id="Alberta-Logo" stroke="none" stroke-width="1" fill="none" fill-rule="evenodd">
        <path d="M25.8,20 C25.8,24.2 22.4,27.6 18.2,27.6 C14,27.6 10.6,24.2 10.6,20 C10.6,15.8 14,12.4 18.2,12.4 C22.4,12.4 25.8,15.8 25.8,20 Z" id="Circle" fill="#0081A2"></path>
        <path d="M35,12.6 L35,27.4 L32.2,27.4 L32.2,12.6 L35,12.6 Z M45.8,12.6 L45.8,15 L40.4,15 L40.4,18.8 L45.2,18.8 L45.2,21.2 L40.4,21.2 L40.4,25 L45.8,25 L45.8,27.4 L37.6,27.4 L37.6,12.6 L45.8,12.6 Z M56.6,12.6 L56.6,15 L51.2,15 L51.2,18.8 L56,18.8 L56,21.2 L51.2,21.2 L51.2,25 L56.6,25 L56.6,27.4 L48.4,27.4 L48.4,12.6 L56.6,12.6 Z M67.4,12.6 L67.4,15 L64.6,15 L64.6,27.4 L61.8,27.4 L61.8,15 L59,15 L59,12.6 L67.4,12.6 Z M77.2,12.6 L77.2,21.2 C77.2,22.8 76.8,24 76,24.8 C75.2,25.6 74,26 72.4,26 C70.8,26 69.6,25.6 68.8,24.8 C68,24 67.6,22.8 67.6,21.2 L67.6,12.6 L70.4,12.6 L70.4,21.2 C70.4,22 70.6,22.6 71,23 C71.4,23.4 72,23.6 72.8,23.6 C73.6,23.6 74.2,23.4 74.6,23 C75,22.6 75.2,22 75.2,21.2 L75.2,12.6 L77.2,12.6 Z" id="ALBERTA" fill="#0081A2" fill-rule="nonzero"></path>
    </g>
</svg>
