<?xml version="1.0" encoding="UTF-8"?>
<svg width="150px" height="40px" viewBox="0 0 150 40" version="1.1" xmlns="http://www.w3.org/2000/svg" xmlns:xlink="http://www.w3.org/1999/xlink">
    <title>Alberta Government Logo</title>
    <g id="Alberta-Logo" stroke="none" stroke-width="1" fill="none" fill-rule="evenodd">
        <g id="Alberta-Logo-Group" transform="translate(10, 10)" fill="#0081A2">
            <path d="M30,0 C30,16.5685425 16.5685425,30 0,30 C-16.5685425,30 -30,16.5685425 -30,0 C-30,-16.5685425 -16.5685425,-30 0,-30 C16.5685425,-30 30,-16.5685425 30,0 Z" id="Alberta-Logo-Path" transform="translate(0, 0) scale(0.5)"></path>
            <path d="M50,0 L50,20 L45,20 L45,0 L50,0 Z M65,0 L65,4 L57,4 L57,8 L64,8 L64,12 L57,12 L57,16 L65,16 L65,20 L52,20 L52,0 L65,0 Z M80,0 L80,4 L72,4 L72,8 L79,8 L79,12 L72,12 L72,16 L80,16 L80,20 L67,20 L67,0 L80,0 Z M95,0 L95,4 L90,4 L90,20 L85,20 L85,4 L80,4 L80,0 L95,0 Z M110,0 L110,12 C110,14 109.5,16 108,17.5 C106.5,19 104.5,20 102,20 C99.5,20 97.5,19 96,17.5 C94.5,16 94,14 94,12 L94,0 L99,0 L99,12 C99,13 99.5,14 100,14.5 C100.5,15 101.5,15.5 102.5,15.5 C103.5,15.5 104.5,15 105,14.5 C105.5,14 106,13 106,12 L106,0 L110,0 Z" id="ALBERTA" fill-rule="nonzero"></path>
        </g>
    </g>
</svg>
